<svg width="125" height="94" viewBox="0 0 125 94" fill="none" xmlns="http://www.w3.org/2000/svg">
<g clip-path="url(#clip0)">
<path d="M93.1794 3.80857C91.3579 3.16198 86.3068 1.5877 84.748 0.406982C84.9372 1.77043 86.2578 2.25185 86.5485 3.15847C86.8603 4.13537 86.5415 5.52341 86.7272 6.57411C87.806 5.32311 90.4087 5.57261 91.484 4.32162L93.1794 3.80857Z" fill="#EFEFEF"/>
<path d="M90.5659 5.06631C88.5167 4.33891 82.751 2.66272 80.9961 1.33441C81.2098 2.86653 82.6985 3.41121 83.0242 4.43379C83.378 5.53368 82.0645 7.09743 82.2711 8.27814C83.4831 6.86901 87.3713 7.15014 88.5833 5.74452L90.5659 5.06631Z" fill="#007FA4"/>
<path d="M23.431 30.6445C21.0456 29.9628 20.7969 27.1023 20.7969 25.3629C20.7969 23.1455 21.0561 21.4658 23.0597 19.9583C21.3118 22.014 23.7218 25.89 26.7482 26.5085" fill="#007FA4"/>
<path d="M43.6064 12.1789C46.5313 10.8119 51.1761 8.21857 54.2901 9.46957C58.4445 11.1387 64.7707 13.0398 69.1527 13.9113C67.8882 16.1322 60.8685 15.1482 58.5321 14.6879C56.8402 14.3541 53.2988 13.089 52.1114 13.205C49.4072 12.337 46.2441 11.6096 43.6064 12.1789C45.7782 11.1633 43.6064 12.1789 43.6064 12.1789Z" fill="#007FA4"/>
<path d="M43.6081 12.1789C45.0057 11.8767 46.4068 11.578 47.8045 11.2758C45.3455 12.8536 42.8865 14.4314 40.424 16.0092C42.5607 16.2693 45.8954 15.2396 46.3123 17.6292C47.237 22.9354 45.5451 29.2571 40.7042 32.0508C38.3433 31.1477 41.1561 29.3344 42.1999 27.3244C43.2928 25.2265 43.8988 22.9108 44.0669 20.5529C44.137 19.5408 44.1335 18.5253 44.0599 17.5132C42.2174 17.5343 40.3749 17.6749 38.557 17.9701C36.2241 18.3461 33.8806 18.9505 31.7334 19.9555C35.2573 16.7647 39.2996 14.1749 43.6081 12.1789Z" fill="#007FA4"/>
<path d="M49.3387 32.209C46.2597 34.0503 43.8743 34.5247 40.9109 31.9454C44.4523 28.2276 47.2125 23.3852 46.2877 18.0826C45.8709 15.693 42.5607 16.2728 40.424 16.0128C42.5677 14.6388 46.0741 11.1564 48.6522 11.3391C50.6803 11.4832 51.5735 11.5113 53.1743 12.3969C57.693 14.8883 61.7248 15.4998 66.7619 14.0625C65.4553 17.1478 65.6515 19.8958 67.1717 22.8863C67.9038 24.3235 69.7603 25.3566 70.8637 26.5303C72.4646 28.2381 72.6817 30.4449 73.9498 32.3952C74.5838 33.3686 75.3439 35.0378 76.3457 35.6457C77.8029 36.5312 76.041 37.7963 75.4665 39.3108C74.3456 42.2556 72.6572 44.9544 70.5345 47.2772C65.8126 52.4463 60.5408 55.76 53.1428 58.132C51.3424 58.7083 49.8081 60.5813 47.6363 61.7831C45.4856 62.9743 40.8128 63.6666 39.7129 60.8483C45.5732 61.0627 48.7292 58.378 53.6788 56.1641C57.8507 54.2947 61.4936 51.3745 63.9281 47.4634C65.5744 44.8208 68.142 39.9469 67.1332 36.8018C66.2715 34.1206 65.4098 31.4359 64.5481 28.7547C63.9876 31.4464 63.3291 34.1171 62.562 36.7597C59.4515 31.1372 54.9223 29.0569 49.3387 32.209C47.5768 33.2597 49.3387 32.209 49.3387 32.209Z" fill="#007FA4"/>
<path d="M46.4542 32.5351C48.2897 32.2259 50.8678 30.5427 52.5912 29.8188C55.6632 28.5291 58.5355 30.5076 60.8509 32.7495C64.014 35.6451 64.9948 30.1421 66.0877 33.5507C67.2436 37.1491 68.9005 41.3835 65.9335 43.7449C59.4533 48.9035 58.0556 41.4151 46.6679 35.4623C44.1423 34.1411 44.1108 34.7068 39.0352 32.6371C40.0685 31.6777 40.5519 31.1295 41.7849 32.1029C43.1265 33.1606 43.6309 33.0131 45.3298 32.753C45.554 32.7144 46.4542 32.5351 46.4542 32.5351Z" fill="#EFEFEF"/>
<path d="M39.0713 56.5963C40.031 54.6706 42.6722 56.0762 43.0785 57.6118C41.849 56.902 40.5635 57.141 39.2569 57.9105C39.0503 57.4853 38.9872 57.0461 39.0713 56.5963C39.1483 56.4487 39.0713 56.5963 39.0713 56.5963Z" fill="#EFEFEF"/>
<path d="M43.0826 57.6116C44.2911 58.0508 46.8657 57.0107 48.2423 55.8265C48.7643 55.3767 48.6382 54.9163 49.668 55.6789C50.9956 56.6663 53.0623 54.5192 54.2848 53.2155C60.3167 46.7848 62.2222 37.1213 64.5481 28.7473C65.4623 31.5937 67.3784 34.5771 68.2927 37.4235C69.4871 41.1448 64.0927 47.7371 61.7563 50.3656C60.1135 52.214 58.1519 53.7567 56.0082 54.9761C53.423 56.4484 50.8134 58.0192 48.2003 59.3405C45.3875 60.7602 42.2945 61.4454 39.3381 60.8023C37.4676 57.7451 40.8023 56.2938 43.0826 57.6116Z" fill="#007FA4"/>
<path d="M43.6071 57.9138C43.0817 57.7451 43.0327 57.6678 42.9346 57.2004C43.404 57.0388 48.9665 54.2065 49.019 55.3977C49.3343 56.7366 44.3007 57.9138 43.6071 57.9138Z" fill="#EFEFEF"/>
<path d="M48.1748 55.2084C48.8088 55.4579 48.5076 55.3384 48.1748 55.2084V55.2084Z" fill="#CCCCCC"/>
<path d="M51.3986 58.8134C50.6805 59.5548 49.9063 60.233 49.0762 60.8445C52.1307 56.9439 56.8315 56.5152 61.189 54.2451C66.044 51.715 70.4786 48.2045 73.393 43.4957C74.6295 41.4962 75.5717 39.321 76.2022 37.0545C76.584 35.67 72.6328 32.293 71.7957 30.297C70.5276 27.2714 67.6693 25.3633 66.4783 22.155C65.41 19.2664 65.2558 15.4713 67.3155 13.3734C66.7656 18.3071 68.1877 23.0265 71.9743 26.3086C72.6644 26.906 74.5069 27.4541 73.9079 28.3924C73.2668 29.3974 75.1514 31.186 75.7434 32.0189C77.6314 34.6439 79.1446 35.3923 78.43 38.5971C75.5017 51.7361 63.8547 57.6643 51.3986 58.8134C50.6104 59.604 51.3986 58.8134 51.3986 58.8134Z" fill="#007FA4"/>
<path d="M75.0353 14.1361C76.7412 12.7656 80.9201 6.16626 82.7906 6.16626C81.2108 8.84747 73.0947 20.2189 81.6662 17.8926C80.3947 19.4317 79.1477 20.9885 77.9567 22.5909C76.5801 20.8725 72.142 16.0969 75.0353 14.3786V14.1361Z" fill="#007FA4"/>
<path d="M75.2284 12.2914C76.0796 13.2718 75.9394 14.3436 74.738 14.9164C74.738 14.6036 74.8185 14.1995 74.8185 13.8868C74.7765 14.9199 74.9376 15.9706 75.1863 16.9791C75.8168 19.5795 79.8907 23.9123 78.3249 26.084C76.4544 28.6808 74.9762 28.9268 72.0303 26.4143C70.0126 24.6924 68.5099 22.3907 67.7463 19.8536C67.0737 17.6292 65.6025 12.9134 68.5975 12.7412C70.7832 12.6147 73.0426 12.4495 75.2284 12.2914Z" fill="#CBDB2F"/>
<path d="M77.9564 22.5875C79.8164 20.082 81.771 17.5729 83.9112 15.2958C79.7253 21.0378 77.7602 28.9127 82.6642 34.8479C83.6485 36.0392 84.8079 37.0793 86.0444 37.993C88.4089 37.4167 90.8328 37.0688 93.2638 36.9809C98.1958 36.8052 103.107 37.7435 107.696 39.5356C104.76 43.4608 101.432 39.2018 97.5093 38.4885C93.3654 37.7329 89.1199 38.615 85.2983 40.2666C82.9199 41.2962 82.398 39.7605 80.7341 38.0035C79.333 36.5241 77.9844 34.9779 76.7374 33.3615C75.9773 32.3776 72.8177 29.2044 73.5147 28.115C74.7933 26.1296 76.5797 24.4956 77.9564 22.5875C79.1578 20.971 77.9564 22.5875 77.9564 22.5875Z" fill="#007FA4"/>
<path d="M88.7835 5.29835C88.6468 5.11211 88.5102 4.92235 88.3701 4.73611C88.3701 4.5077 92.6786 3.87166 93.127 3.76975C93.3477 3.72055 94.1288 6.50367 94.409 7.04131C95.5019 9.13568 96.6929 10.5343 98.9908 11.1984C96.0203 11.7255 97.1938 12.3124 94.416 9.12162C93.8241 8.44341 92.6086 6.69342 91.9991 6.72154C91.0428 6.76722 89.7467 5.25618 88.7835 5.29835Z" fill="#EFEFEF"/>
<path d="M108.266 31.2953C107.331 31.1442 106.392 31.1442 105.457 31.334C106.056 29.454 105.979 27.5775 105.268 25.6588C107.254 26.9731 108.266 28.8531 108.266 31.2953Z" fill="#EFEFEF"/>
<path d="M98.9971 26.8078C100.833 27.985 102.22 29.9142 103.155 32.504L101.992 33.1155C101.281 33.7269 100.643 34.3876 100.083 35.0904C100.121 32.2686 99.7817 29.489 98.9971 26.8078Z" fill="#EFEFEF"/>
<path d="M102.757 26.5055C103.394 24.1194 103.468 21.635 103.058 19.0557C104.368 19.7234 105.678 20.5351 106.953 21.4453C106.393 22.872 105.286 25.0542 102.757 26.5055Z" fill="#EFEFEF"/>
<path d="M101.843 18.7324C101.941 18.374 99.4226 23.6029 98.5084 24.52L97.1213 25.7218C97.2333 23.016 96.9356 20.2329 96.1475 17.4147C98.1336 17.6817 100.008 18.0929 101.843 18.7324Z" fill="#EFEFEF"/>
<path d="M91.0315 17.5309L90.8809 17.306C91.8161 17.2674 92.7549 17.2674 93.6516 17.3447C93.6901 19.0349 93.3889 20.69 92.7899 22.3065C92.4186 20.69 91.8196 19.1087 91.0315 17.5309Z" fill="#EFEFEF"/>
<path d="M96.4657 29.8052C96.0594 32.3072 96.9526 34.7213 98.6375 36.5697C93.6074 39.6339 94.8229 32.2088 96.4657 29.8052C96.2415 31.1967 96.4657 29.8052 96.4657 29.8052Z" fill="#EFEFEF"/>
<path d="M77.8481 34.7388C77.9007 34.4014 78.9025 35.9476 79.2598 36.3904C81.2914 38.7869 84.8293 40.6775 82.4894 43.313C73.0142 53.9957 72.4748 51.1388 70.0508 52.0594C71.9844 49.0901 77.9252 41.1203 78.5172 37.6343C78.5522 37.557 77.8481 34.7388 77.8481 34.7388Z" fill="#EFEFEF"/>
<path d="M88.2228 4.77468C88.2614 4.73602 88.4225 4.67277 88.4575 4.67277L88.7518 4.49707L92.0059 5.15419C93.4316 8.38711 95.2671 10.3796 97.5755 11.1562L98.9941 11.2089C99.3864 11.3284 99.5406 12.3966 99.6001 12.6391C99.8103 13.4543 99.7682 14.7616 99.6421 15.0743L96.1428 14.3856C95.2811 13.9744 96.0832 13.5422 95.2601 13.0502C92.7135 11.5076 95.6349 16.1074 93.9115 13.9674C93.8729 13.9674 94.6751 14.5015 96.353 14.7159L94.4579 14.4312L94.8818 14.4629C95.1235 14.9302 101.513 15.5417 94.514 14.7405C93.5402 14.628 96.5736 14.7791 97.7751 14.4418L99.6842 13.7636L101.709 12.7867L101.222 14.3258C100.959 15.004 100.774 15.5663 100.735 15.9809L99.425 16.2445C98.7874 16.3569 98.227 16.3956 97.8137 16.2831L96.8784 15.9458C96.0902 15.6436 94.8187 15.7209 93.0953 16.2093C91.8973 16.5467 90.5347 16.6275 89.5259 16.2902C88.5136 15.9528 88.2264 15.4222 88.1143 14.8213L88.2264 14.108C88.2649 13.9182 88.2649 13.7706 88.2649 13.6582C88.0022 13.3208 87.6659 12.871 87.2526 12.3053C86.7657 11.627 86.0896 11.2159 85.305 11.1035C84.0299 10.9172 83.2453 10.7275 82.9055 10.615C82.7549 10.5412 82.6043 10.4639 82.4922 10.3901C82.6043 9.37455 83.5395 8.17275 85.34 6.78119" fill="#007FA4"/>
<path d="M81.6661 17.8891C76.5064 19.2912 77.3051 15.4714 79.1861 12.2807C79.8306 11.1878 81.9148 3.68536 85.3371 6.76366C80.286 11.3987 86.7768 10.095 88.6508 12.7024C89.1622 13.4017 88.8785 15.0005 88.1114 14.8073C88.6088 17.492 93.1449 16.0794 94.6652 15.8439C97.5445 15.4047 100.652 16.4097 103.671 15.9915C106.89 15.5452 108.204 13.2857 110.4 16.3851C111.062 18.9433 111.118 21.6878 110.999 24.3162C105.986 20.4368 100.28 18.1737 93.9891 17.6185C93.0854 17.5377 91.0397 17.1055 90.2096 17.5904C87.7225 20.1837 86.4405 23.9367 87.8241 27.2048C89.4074 30.9472 94.2238 39.1736 99.0122 35.5717C100.781 34.2434 101.692 32.3212 103.92 31.4954C106.662 30.4764 109.766 31.1581 112.2 32.6234C111.374 33.0838 109.934 33.0802 109.717 34.0044C108.974 37.146 108.582 38.4532 107.706 39.539C101.969 37.3041 96.4026 36.4572 90.5844 38.5973C85.7995 40.3578 82.6749 39.1455 81.2983 35.642C80.4506 33.4949 80.2755 32.9397 79.9077 30.4834C78.9829 24.3022 80.8955 19.4423 83.9184 15.2957C83.1338 16.1286 82.5033 17.116 81.6661 17.8891C81.4769 18.0648 81.6661 17.8891 81.6661 17.8891Z" fill="#EFEFEF"/>
<path d="M105.314 13.0604C106.263 13.3134 108.323 14.5223 109.171 15.0213C106.946 16.2934 101.913 16.5393 100.452 16.0298C100.943 10.8501 103.36 12.9023 105.188 13.2748C106.628 13.57 105.314 13.0604 105.314 13.0604Z" fill="#007FA4"/>
<path d="M108.071 14.6107C105.57 13.6865 103.969 13.4967 101.969 12.6358C103.612 11.7011 105.955 8.91092 107.43 10.5168C108.943 12.1579 109.871 14.2312 110.4 16.3853C109.724 15.6192 109.622 15.2713 108.446 14.7864C108.214 14.695 108.071 14.6107 108.071 14.6107Z" fill="#003146"/>
<path d="M87.95 27.6619C96.1467 24.2146 102.466 44.5292 91.5124 44.0267C87.8624 43.8581 83.8166 36.7 88.8642 36.7C92.7174 36.7 94.3147 33.1965 90.4125 32.3672L87.95 27.6619Z" fill="#F26A36"/>
<path d="M90.3457 32.3634C90.8816 30.7434 91.8589 30.1952 93.3757 29.4151C92.9133 31.6781 92.6961 34.5913 92.57 34.767C91.4 33.906 91.1443 33.7725 90.3422 32.2685C90.2756 32.135 90.3457 32.3634 90.3457 32.3634Z" fill="#EFEFEF"/>
<path d="M97.5864 13.6333C97.5864 15.2111 96.7668 16.4902 95.7509 16.4902C94.7386 16.4902 93.9189 15.2111 93.9189 13.6333C93.9189 12.0555 94.7421 10.7764 95.7509 10.7764C96.7633 10.7764 97.5864 12.0555 97.5864 13.6333Z" fill="white"/>
<path d="M97.5859 13.6336C97.5859 14.477 97.1866 15.1622 96.6997 15.1622C96.2128 15.1622 95.8135 14.477 95.8135 13.6336C95.8135 12.7903 96.2093 12.105 96.6997 12.105C97.1866 12.105 97.5859 12.7903 97.5859 13.6336Z" fill="#003146"/>
<path d="M93.4424 10.2845C94.6263 11.8307 96.3638 13.0817 97.7754 14.4311C98.2308 11.033 96.2096 9.70824 93.4424 10.2845Z" fill="#EFEFEF"/>
<path d="M44.0554 17.5134C45.982 20.0399 44.8366 23.8667 43.3198 27.3878C41.0115 32.7432 34.5907 35.6387 31.9181 35.6387C35.7011 30.6488 43.3444 26.1298 41.057 19.6921C35.7362 18.4657 30.8006 24.8858 27.7637 23.7156C34.7729 16.923 40.3599 15.9074 44.0554 17.5134Z" fill="#007FA4"/>
<path d="M37.0509 25.6515C37.4993 24.2986 37.9512 22.9457 38.3995 21.5928C31.2432 25.1631 26.7385 31.7624 24.9871 39.4827C23.008 38.8889 21.8731 37.4727 21.5088 34.6861C23.7997 35.6876 22.8224 35.9968 23.2217 33.5335C23.6315 31.0385 23.9188 28.9617 25.7402 25.9045C29.4568 19.6812 40.0704 17.5938 41.4715 20.0536C44.2248 23.5325 41.3139 30.6168 36.6621 33.0907C32.9911 35.0445 32.5988 34.7704 30.6232 36.2252C29.1485 37.3146 26.6194 39.5706 25.8453 41.2503C23.5615 37.9682 34.3607 27.7107 37.0509 25.6515Z" fill="#007FA4"/>
<path d="M29.8065 32.9361C28.1111 35.2202 26.7871 37.4692 25.7397 40.1539C24.9831 42.0902 26.4052 38.0701 24.9866 39.4828C24.258 35.6419 25.1407 36.4115 26.9867 32.6445C29.6209 27.2785 34.0099 22.9071 39.3413 20.2469C38.9419 21.7193 38.9595 24.1264 38.0978 25.4231" fill="#007FA4"/>
<path d="M23.0378 28.6736C25.3672 23.515 28.6318 20.5246 34.0017 19.0557C30.2221 21.1993 27.8297 23.7224 25.4653 27.4262C23.3601 30.7223 26.8069 38.6886 21.5071 34.6861C21.9659 37.9858 23.0098 38.5305 24.9854 39.1244C26.3235 40.2805 24.4985 40.3437 23.4932 38.9522C20.9781 35.4627 20.1374 30.2093 23.0378 28.6736C22.2882 30.3006 21.6472 31.3478 21.2934 33.1013C21.6472 31.3513 22.2882 30.3006 23.0378 28.6736C24.6491 25.1069 23.0378 28.6736 23.0378 28.6736Z" fill="#007FA4"/>
<path d="M34.4648 34.0117C35.859 33.8571 38.6718 34.1206 39.5265 35.463C39.9048 36.0604 39.4424 39.6482 38.5457 39.6482C38.1744 33.3932 30.0583 38.1161 26.3242 40.2807C27.7814 38.4288 30.0898 34.0293 34.4648 34.0117C34.8046 34.0117 34.4648 34.0117 34.4648 34.0117Z" fill="#007FA4"/>
<path d="M26.5976 41.7534C27.7326 38.2253 29.6872 36.7319 33.2005 35.7479C36.5037 34.8238 38.3427 36.1802 38.5494 39.6485C33.6944 39.3463 29.3123 41.901 25.848 45.0988C25.6624 43.5702 25.1755 40.65 24.9863 39.1249C25.172 39.2514 25.6168 39.0336 25.806 39.1601C26.2614 38.1691 27.2492 39.1249 28.209 38.6259C27.5784 39.5958 26.9444 40.6465 26.5976 41.7534C26.9724 40.5868 26.5976 41.7534 26.5976 41.7534Z" fill="#007FA4"/>
<path d="M25.8864 45.5478C25.0843 45.2843 27.827 42.5328 28.6957 42.1146C31.0321 40.9866 36.458 38.9168 38.6964 39.6478C37.4178 42.22 28.7798 46.6196 25.8864 45.5478C25.7743 45.5127 25.8864 45.5478 25.8864 45.5478Z" fill="#EFEFEF"/>
<path d="M75.3151 17.2848C72.6214 18.0333 72.6214 19.8079 73.949 22.0288C72.1766 20.2507 70.4076 20.2507 68.6352 22.0288C69.5214 20.2507 69.9628 18.0298 67.3076 17.1443C69.5214 17.587 71.2939 17.1443 71.2939 14.4771C71.7352 15.3662 71.7352 16.2552 72.2256 17.2637L75.3151 17.2848Z" fill="#FFFF00"/>
</g>
<path d="M0.875 90.7549L1.79244 89.6904C2.85694 90.902 4.58677 92.0926 6.9679 92.0926C10.3365 92.0926 11.303 90.2087 11.303 88.801C11.303 83.9477 1.40025 86.4759 1.40025 80.7052C1.40025 78.0089 3.8234 76.3 6.82083 76.3C9.27199 76.3 11.1559 77.1685 12.4165 78.6252L11.478 79.6617C10.2875 78.226 8.60668 77.5817 6.7508 77.5817C4.54475 77.5817 2.89196 78.8423 2.89196 80.6281C2.89196 84.8651 12.7947 82.533 12.7947 88.703C12.7947 90.832 11.387 93.3812 6.92588 93.3812C4.19458 93.3812 2.1356 92.2676 0.875 90.7549Z" fill="white"/>
<path d="M22.7892 93.0778V77.8526H17.3896V76.564H29.6245V77.8526H24.2249V93.0778H22.7892Z" fill="white"/>
<path d="M45.2693 93.0778L43.6375 89.0159H34.8973L33.2656 93.0778H31.6338L38.392 76.564H40.1498L46.9081 93.0778H45.2693ZM39.2814 78.0767L35.3666 87.7343H43.1683L39.2814 78.0767Z" fill="white"/>
<path d="M61.4892 93.0778L56.8599 86.2426H53.2182V93.0778H51.8105V76.564H57.9735C60.8238 76.564 63.0019 78.3708 63.0019 81.3893C63.0019 84.3867 60.9009 86.0465 58.4217 86.1445L63.198 93.0778H61.4892ZM61.5172 81.3963C61.5172 79.3163 60.0535 77.8596 57.8544 77.8596H53.2252V84.968H57.8544C60.0535 84.961 61.5172 83.4762 61.5172 81.3963Z" fill="white"/>
<path d="M68.9893 93.0778V76.564H74.2628C79.3892 76.564 82.6037 80.3037 82.6037 84.8349C82.6037 89.4151 79.3822 93.0778 74.2628 93.0778H68.9893ZM81.126 84.8349C81.126 80.9761 78.6469 77.8526 74.2698 77.8526H70.4039V91.7892H74.2698C78.6258 91.7962 81.126 88.7007 81.126 84.8349Z" fill="white"/>
<path d="M87.9834 84.8348C87.9834 80.0095 91.1559 76.2908 96.0092 76.2908C100.835 76.2908 104.028 80.0025 104.028 84.8348C104.028 89.6671 100.835 93.3789 96.0092 93.3789C91.1559 93.3789 87.9834 89.6671 87.9834 84.8348ZM102.543 84.8348C102.543 80.6538 99.9661 77.5794 96.0092 77.5794C92.0243 77.5794 89.4751 80.6468 89.4751 84.8348C89.4751 88.9948 92.0243 92.0903 96.0092 92.0903C99.9661 92.0903 102.543 88.9948 102.543 84.8348Z" fill="white"/>
<path d="M109.377 84.8348C109.377 79.7364 113.089 76.2908 117.746 76.2908C120.47 76.2908 122.452 77.3833 123.958 79.1131L122.893 79.8835C121.731 78.4968 119.847 77.5794 117.746 77.5794C113.887 77.5794 110.862 80.5278 110.862 84.8348C110.862 89.0929 113.88 92.1183 117.746 92.1183C119.952 92.1183 121.71 91.0258 122.599 90.1154V86.1515H116.359V84.8909H124.014V90.6616C122.55 92.2934 120.351 93.4069 117.746 93.4069C113.089 93.3999 109.377 89.9333 109.377 84.8348Z" fill="white"/>
<defs>
<clipPath id="clip0">
<rect width="110" height="75" fill="white" transform="translate(8.75391 0.406982)"/>
</clipPath>
</defs>
</svg>