<?xml version="1.0" encoding="windows-1252"?>
<!DOCTYPE svg PUBLIC "-//W3C//DTD SVG 1.1//EN" "http://www.w3.org/Graphics/SVG/1.1/DTD/svg11.dtd">
<svg xmlns="http://www.w3.org/2000/svg" xml:space="preserve" version="1.1" overflow="visible" xmlns:xlink="http://www.w3.org/1999/xlink" viewBox="0 0 188.77 357.735">
  <title>Semantic Web logo combined with the W3C logo, set vertically</title>
  <desc>The logo combines three entities displayed horizontally: the W3C logo with the text 'W3C'; the drawing of a cube whose top part is slightly peeled off; and the text 'Semantic Web'. These three entities are stacked vertically.</desc>
  <metadata>
	<rdf:RDF xmlns:rdf="http://www.w3.org/1999/02/22-rdf-syntax-ns#" xmlns:rdfs="http://www.w3.org/2000/01/rdf-schema#" xmlns:cc="http://creativecommons.org/ns#" xmlns:dc="http://purl.org/dc/elements/1.1/">
		<cc:Work rdf:about="">
	        <dc:title>Semantic Web logo combined with the W3C logo, set vertically</dc:title>
	        <dc:format>image/svg+xml</dc:format>
			<rdfs:seeAlso rdf:resource="http://www.w3.org/2007/10/sw-logos.html"/>
	        <dc:date>2007-11-01</dc:date>
			<cc:license rdf:resource="http://www.w3.org/Consortium/Legal/2002/copyright-documents-20021231"/>
			<cc:morePermissions rdf:resource="http://www.w3.org/2007/10/sw-logos.html#LogoWithW3C"/>
			<cc:attributionURL rdf:reource="http://www.w3.org/2001/sw/"/>
			<dc:description>The logo combines three entities displayed horizontally: the W3C logo with the text 'W3C'; the drawing of a cube whose top part is slightly peeled off; and the text 'Semantic Web'. These three entities are stacked vertically.
			</dc:description>
		</cc:Work>
	</rdf:RDF>
  </metadata>
  <text x="0" y="75" font-size="85" fill-opacity="0" font-family="Trebuchet" letter-spacing="-12">W3C</text>
  <text x="0" y="310" font-size="43" fill-opacity="0" font-family="Trebuchet" font-weight="bold">Semantic <tspan x="35" dy="48" letter-spacing="4">Web</tspan></text>

  <g shape-rendering="geometricPrecision" text-rendering="geometricPrecision" image-rendering="optimizeQuality">
    <g>
      <g>
        <g>
          <g>
            <path d="M173.119,6.882l1.866,11.337l-6.601,12.634c0,0-2.533-5.356-6.748-8.324      c-3.545-2.502-5.855-3.043-9.469-2.299c-4.649,0.959-9.91,6.51-12.203,13.352c-2.75,8.184-2.772,12.148-2.874,15.79      c-0.155,5.836,0.771,9.286,0.771,9.286s-4.008-7.417-3.971-18.284c0.023-7.749,1.244-14.784,4.83-21.722      c3.156-6.1,7.842-9.762,12.009-10.187c4.302-0.454,7.71,1.622,10.335,3.871c2.758,2.357,5.554,7.513,5.554,7.513L173.119,6.882z      " fill="#221B0A"/>
            <path d="M173.934,71.05c0,0-2.918,5.214-4.734,7.228c-1.816,2.005-5.068,5.545-9.094,7.318      c-4.017,1.77-6.121,2.104-10.097,1.721c-3.967-0.384-7.651-2.677-8.942-3.642c-1.297-0.953-4.601-3.778-6.457-6.399      c-1.875-2.636-4.787-7.902-4.787-7.902s1.621,5.275,2.639,7.513c0.581,1.288,2.389,5.225,4.943,8.66      c2.375,3.2,7.014,8.708,14.046,9.948c7.034,1.247,11.864-1.909,13.062-2.676c1.193-0.768,3.714-2.875,5.31-4.581      c1.671-1.784,3.24-4.063,4.112-5.42c0.646-0.997,1.68-3.011,1.68-3.011L173.934,71.05z" fill="#221B0A"/>
          </g>
          <g>
            <path d="M52.482,7.385L68.386,61.45L84.289,7.385h11.51L69.482,96.212h-1.097L51.934,41.165L35.484,96.212      h-1.099L8.069,7.385h11.512L35.484,61.45l10.747-36.41L40.965,7.385H52.482z" fill="#005A9C"/>
            <path d="M128.496,67.696c0,8.044-2.139,14.811-6.416,20.292c-4.275,5.481-9.814,8.225-16.613,8.225      c-5.115,0-9.578-1.633-13.377-4.88c-3.805-3.258-6.621-7.664-8.449-13.212l8.995-3.729c1.317,3.363,3.055,6.013,5.208,7.949      c2.154,1.932,4.693,2.903,7.623,2.903c3.07,0,5.668-1.721,7.789-5.15c2.121-3.435,3.18-7.571,3.18-12.398      c0-5.336-1.137-9.46-3.406-12.389c-2.627-3.433-6.76-5.156-12.393-5.156h-4.383V44.89l15.352-26.54H93.068l-5.154,8.768h-3.279      V7.385h42.764v5.368L111.17,40.725c5.695,1.82,10.015,5.153,12.938,9.978C127.035,55.53,128.496,61.192,128.496,67.696z" fill="#005A9C"/>
          </g>
        </g>
        <g>
          <g>
            <path d="M182.858,0c3.284,0,5.911,2.679,5.911,5.963c0,3.339-2.627,5.99-5.943,5.99      c-3.283,0-5.957-2.65-5.957-5.99c0-3.284,2.674-5.963,5.957-5.963H182.858z M182.807,1.189c-2.494,0-4.508,2.15-4.508,4.798      c0,2.683,2.014,4.772,4.527,4.772c2.521,0.026,4.563-2.09,4.563-4.772c0-2.647-2.043-4.798-4.563-4.798H182.807z M181.798,9.439      h-1.413V2.808c0.535-0.076,1.123-0.184,2.128-0.184c1.136,0,1.831,0.184,2.272,0.529c0.378,0.288,0.588,0.741,0.588,1.433      c0,0.796-0.553,1.352-1.273,1.538v0.049c0.59,0.11,0.956,0.639,1.063,1.622c0.131,1.032,0.268,1.43,0.369,1.645h-1.458      c-0.154-0.244-0.262-0.829-0.398-1.724c-0.102-0.721-0.529-1.008-1.244-1.008h-0.634V9.439z M181.798,5.618h0.657      c0.825,0,1.465-0.264,1.465-0.953c0-0.555-0.401-0.979-1.354-0.979c-0.349,0-0.587,0-0.768,0.023V5.618z" fill="#221B0A"/>
          </g>
        </g>
      </g>
      <g>
        <path d="M101.07,118.181c49.262,22.201,60.006-18.737,60.006-18.737s-9.361,51.346-52.557,72.32    c-8.798,4.277-14.265,6.57-14.265,6.57l-70.762-34.491l70.762-29.019C94.255,114.824,92.547,114.342,101.07,118.181z" fill="#86BA0C"/>
        <polygon points="86.01,268.546 20.078,232.849 20.078,159.232 86.01,192.747   " fill="#EF7C00"/>
        <polygon points="100.841,268.546 166.772,232.849 166.772,159.232 100.841,192.747   " fill="#BD1789"/>
      </g>
      <g>
        <g>
          <g>
            <path d="M89.502,323.048l-11.7,34.688h-4.719l-7.021-20.188l-7.195,20.188h-4.759l-11.466-34.688h8.443l5.616,19      l6.436-19h5.83l6.318,19l5.87-19H89.502z" fill="#005A9C"/>
            <path d="M110.798,346.86H96.806c0.273,1.524,0.943,2.771,2.01,3.737s2.275,1.45,3.629,1.45      c2.367,0,4.98-0.836,7.844-2.508v5.513c-1.027,0.68-2.271,1.296-3.732,1.851c-1.463,0.555-3.324,0.832-5.584,0.832      c-2.443,0-4.521-0.575-6.236-1.727c-1.715-1.15-2.998-2.713-3.85-4.687s-1.275-4.21-1.275-6.71c0-2.467,0.424-4.674,1.275-6.623      s2.135-3.479,3.85-4.589c1.715-1.109,3.795-1.665,6.238-1.665c1.611,0,3.166,0.439,4.668,1.318      c1.5,0.879,2.734,2.315,3.703,4.311c0.969,1.996,1.453,4.57,1.453,7.723V346.86z M104.173,342.485      c0-1.614-0.314-2.903-0.943-3.867c-0.629-0.963-1.533-1.445-2.713-1.445c-1.166,0-2.109,0.49-2.828,1.471      s-1.078,2.261-1.078,3.842H104.173z" fill="#005A9C"/>
            <path d="M136.63,344.932c0,2.906-0.451,5.315-1.352,7.228s-2.049,3.32-3.445,4.223s-2.818,1.354-4.266,1.354      c-1.045,0-1.947-0.151-2.711-0.454s-1.357-0.63-1.781-0.981s-0.865-0.772-1.32-1.264v2.262h-7v-34.25h7v10.615      c0.521-0.511,1.238-0.96,2.152-1.347s1.971-0.581,3.17-0.581c1.605,0,3.021,0.367,4.248,1.1      c1.227,0.733,2.229,1.727,3.004,2.979c0.777,1.252,1.354,2.656,1.732,4.213S136.63,343.219,136.63,344.932z M129.255,344.734      c0-2.158-0.389-3.802-1.162-4.931c-0.775-1.129-1.693-1.693-2.756-1.693s-2.258,0.536-3.582,1.606v9.614      c0.996,1.187,2.191,1.779,3.582,1.779c0.879,0,1.752-0.448,2.617-1.347C128.821,348.865,129.255,347.189,129.255,344.734z" fill="#005A9C"/>
          </g>
          <g>
            <path d="M19.938,303.703c0,2.138-0.432,3.987-1.295,5.549c-0.863,1.563-2.067,2.759-3.612,3.589      c-1.545,0.829-3.316,1.245-5.314,1.245c-0.559,0-1.243-0.046-2.054-0.136c-0.812-0.091-1.889-0.341-3.232-0.752      s-2.742-1.02-4.195-1.825v-8.39c1.364,1.07,2.706,1.959,4.025,2.666c1.318,0.708,2.731,1.062,4.239,1.062      c1.391,0,2.29-0.291,2.699-0.875s0.614-1.131,0.614-1.641c0-0.92-0.35-1.697-1.048-2.33c-0.699-0.633-1.714-1.286-3.046-1.96      c-1.485-0.79-2.788-1.65-3.908-2.581c-1.121-0.93-2.036-2.095-2.746-3.494S0,290.775,0,288.865c0-1.844,0.356-3.512,1.07-5.002      s1.805-2.68,3.271-3.568s3.259-1.334,5.375-1.334c1.506,0,2.897,0.187,4.177,0.558c1.278,0.372,2.333,0.789,3.164,1.252      c0.83,0.463,1.401,0.826,1.714,1.09v8.039c-1.102-1.004-2.328-1.9-3.682-2.69s-2.8-1.186-4.34-1.186      c-1.011,0-1.742,0.247-2.195,0.74s-0.68,1.102-0.68,1.824c0,0.674,0.226,1.258,0.679,1.751c0.452,0.493,1.261,1.093,2.425,1.8      c2.072,1.233,3.73,2.343,4.975,3.329s2.219,2.125,2.925,3.415C19.584,300.174,19.938,301.78,19.938,303.703z" fill="#005A9C"/>
            <path d="M44.766,303.211H30.773c0.273,1.524,0.943,2.771,2.01,3.737s2.275,1.45,3.629,1.45      c2.367,0,4.981-0.836,7.844-2.508v5.513c-1.027,0.68-2.271,1.296-3.732,1.851c-1.462,0.555-3.323,0.832-5.583,0.832      c-2.443,0-4.522-0.575-6.237-1.727c-1.715-1.15-2.998-2.713-3.849-4.687c-0.852-1.974-1.276-4.21-1.276-6.71      c0-2.467,0.425-4.674,1.276-6.623s2.135-3.479,3.85-4.589c1.715-1.109,3.794-1.665,6.237-1.665c1.611,0,3.167,0.439,4.668,1.318      s2.735,2.315,3.704,4.311c0.968,1.996,1.452,4.57,1.452,7.723V303.211z M38.141,298.836c0-1.614-0.314-2.903-0.943-3.867      c-0.629-0.963-1.532-1.445-2.712-1.445c-1.166,0-2.109,0.49-2.828,1.471c-0.72,0.98-1.079,2.261-1.079,3.842H38.141z" fill="#005A9C"/>
            <path d="M83.594,313.648h-7v-13.387c0-1.775-0.232-3.103-0.695-3.981c-0.464-0.879-1.198-1.319-2.203-1.319      c-0.979,0-1.782,0.374-2.409,1.122s-1.253,1.688-1.88,2.822v14.743h-7v-13.387c0-1.693-0.216-3-0.646-3.92      c-0.432-0.92-1.195-1.381-2.291-1.381c-0.522,0-1.002,0.132-1.439,0.395c-0.438,0.264-0.794,0.56-1.067,0.888      c-0.274,0.329-0.607,0.814-0.999,1.455c-0.393,0.641-0.641,1.043-0.744,1.207v14.743h-7v-25.125h7v3.618      c1.054-1.418,2.127-2.448,3.221-3.091c1.093-0.643,2.354-0.965,3.786-0.965c0.677,0,1.321,0.079,1.933,0.235      s1.213,0.425,1.805,0.804s1.129,0.898,1.61,1.558c0.481,0.66,0.865,1.427,1.152,2.3c1.131-1.615,2.305-2.836,3.521-3.66      s2.618-1.236,4.205-1.236s2.917,0.403,3.99,1.209c1.073,0.807,1.867,1.97,2.381,3.491s0.771,3.368,0.771,5.54V313.648z" fill="#005A9C"/>
            <path d="M108.359,312.374c-1.025,0.514-1.973,0.927-2.842,1.241c-0.869,0.313-1.914,0.471-3.133,0.471      c-1.155,0-1.96-0.261-2.414-0.781s-0.778-1.153-0.973-1.897c-0.756,0.777-1.597,1.419-2.521,1.923      c-0.925,0.503-2.136,0.756-3.634,0.756c-1.446,0-2.615-0.316-3.508-0.948s-1.518-1.429-1.876-2.39s-0.537-1.95-0.537-2.969      c0-1.543,0.309-2.82,0.928-3.83s1.449-1.836,2.492-2.477c1.042-0.641,2.423-1.306,4.144-1.995      c0.977-0.395,1.716-0.694,2.218-0.899s0.876-0.365,1.124-0.48s0.509-0.263,0.782-0.443c0-1.211-0.196-2.161-0.587-2.849      s-1.237-1.032-2.54-1.032c-1.538,0-2.965,0.429-4.281,1.284s-2.521,1.958-3.615,3.308v-6.827      c0.871-0.795,1.813-1.444,2.828-1.949c1.014-0.505,2.074-0.882,3.18-1.13s2.224-0.373,3.355-0.373      c2.873,0,5.035,0.702,6.485,2.106c1.449,1.404,2.175,3.338,2.175,5.801v9.682c0,0.92,0.067,1.606,0.204,2.058      s0.387,0.677,0.752,0.677c0.441,0,1.04-0.238,1.794-0.716V312.374z M98.609,307.554v-5.905c-1.67,0.851-2.889,1.615-3.658,2.293      s-1.154,1.598-1.154,2.758c0,0.834,0.192,1.471,0.577,1.912s0.831,0.662,1.34,0.662c0.482,0,0.961-0.167,1.438-0.503      S98.113,308.029,98.609,307.554z" fill="#005A9C"/>
            <path d="M132.364,313.648h-7v-13.018v-0.518c0-1.38-0.18-2.584-0.539-3.611s-1.146-1.541-2.359-1.541      c-0.574,0-1.08,0.136-1.518,0.407s-0.83,0.62-1.176,1.048s-0.637,0.838-0.871,1.232c-0.235,0.395-0.477,0.813-0.725,1.257      v14.743h-7v-25.125h7v3.618c1.105-1.5,2.215-2.551,3.327-3.152s2.352-0.903,3.718-0.903c4.762,0,7.143,3.603,7.143,10.808      V313.648z" fill="#005A9C"/>
            <path d="M152.215,312.185c-0.729,0.445-1.732,0.873-3.013,1.284c-1.281,0.411-2.506,0.617-3.676,0.617      c-5.031,0-7.546-3.122-7.546-9.367v-10.008h-3.179v-1.56l9.384-12.19h0.795v7.563h6.708v6.188h-6.708v8.027      c0,0.937,0.045,1.692,0.136,2.267s0.348,1.055,0.771,1.44c0.422,0.386,1.063,0.578,1.921,0.578c1.118,0,2.587-0.592,4.407-1.777      V312.185z" fill="#005A9C"/>
            <path d="M162.735,313.648h-7v-25.125h7V313.648z M162.173,282.724c0,1.04-0.291,1.923-0.873,2.648      c-0.582,0.727-1.273,1.089-2.074,1.089c-0.543,0-1.038-0.165-1.483-0.495c-0.446-0.33-0.799-0.779-1.057-1.349      c-0.259-0.569-0.388-1.2-0.388-1.894c0-1.023,0.284-1.906,0.853-2.648s1.261-1.114,2.075-1.114c0.801,0,1.492,0.372,2.074,1.114      S162.173,281.7,162.173,282.724z" fill="#005A9C"/>
            <path d="M184.611,312.48c-0.585,0.28-1.202,0.54-1.853,0.778s-1.381,0.436-2.193,0.593      c-0.813,0.155-1.7,0.234-2.662,0.234c-2.172,0-4.007-0.464-5.505-1.394c-1.499-0.929-2.654-2.097-3.465-3.503      s-1.372-2.841-1.683-4.305c-0.312-1.463-0.467-2.754-0.467-3.873c0-1.117,0.158-2.408,0.477-3.872      c0.317-1.464,0.872-2.878,1.663-4.243s1.937-2.508,3.436-3.429c1.498-0.921,3.347-1.382,5.544-1.382      c1.469,0,2.664,0.132,3.588,0.396c0.923,0.264,1.859,0.617,2.809,1.062v6.988c-2.289-0.922-4.076-1.383-5.363-1.383      c-1.248,0-2.356,0.477-3.325,1.429c-0.969,0.953-1.452,2.431-1.452,4.435c0,1.331,0.24,2.452,0.722,3.363      c0.48,0.912,1.092,1.581,1.833,2.008c0.74,0.428,1.481,0.641,2.223,0.641c0.702,0,1.502-0.131,2.398-0.395      s1.989-0.642,3.276-1.136V312.48z" fill="#005A9C"/>
          </g>
        </g>
      </g>
    </g>
  </g>
</svg>